<svg id="Capa_1" enable-background="new 0 0 512 512" height="512" viewBox="0 0 512 512" width="512" xmlns="http://www.w3.org/2000/svg"><g><g><path d="m512 256c0 141.387-114.613 256-256 256s-256-114.613-256-256 114.613-256 256-256c95.168 0 178.208 51.925 222.325 128.992v21.408c0 10.187 8.267 18.453 18.453 18.453 9.857 27.2 15.222 56.544 15.222 87.147z" fill="#00b9ff"/><g><g><path d="m512 256c0 65.237-24.405 124.779-64.576 169.984-13.472 15.168-28.725 28.715-45.419 40.331-41.418 28.8-91.733 45.685-146.005 45.685s-104.587-16.885-146.005-45.685c-16.693-11.616-31.947-25.163-45.419-40.331-40.171-45.205-64.576-104.747-64.576-169.984 0-46.219 12.245-89.568 33.675-126.997 44.128 77.066 127.168 129.002 222.325 129.002s178.208-51.936 222.325-129.003v21.398c0 10.187 8.267 18.453 18.453 18.453 9.857 27.2 15.222 56.544 15.222 87.147z" fill="#0092ff"/></g></g></g><g><g><path d="m64.744 186.917c-2.036 0-4.102-.468-6.04-1.456-6.558-3.341-9.166-11.367-5.824-17.925l11.491-22.552c15.592-30.6 47.781-48.564 82.013-45.743l25.331 2.081c7.336.603 12.794 7.038 12.191 14.374-.603 7.335-7.041 12.802-14.374 12.191l-25.331-2.081c-23.409-1.917-45.419 10.355-56.081 31.28l-11.491 22.552c-2.354 4.619-7.033 7.279-11.885 7.279z" fill="#ffc0a4"/><path d="m264.415 191.02c-19.365 0-38.326-8.935-50.445-25.189l-8.768-11.759c-4.399-5.9-3.183-14.25 2.718-18.65 5.9-4.399 14.25-3.183 18.651 2.718l8.768 11.759c10.186 13.662 28.782 18.332 44.217 11.108l15.929-7.456c6.665-3.121 14.6-.247 17.72 6.42 3.12 6.666.246 14.6-6.42 17.721l-15.929 7.457c-8.476 3.966-17.503 5.871-26.441 5.871z" fill="#ffa87a"/><path d="m128.906 310.563c-.429 0-.858-.016-1.29-.047l-69.318-4.337c-9.7-.709-16.988-9.148-16.278-18.849s9.151-17.01 18.85-16.278l57.827 3.495 19.677-37.332c4.536-8.604 15.189-11.903 23.791-7.366 8.604 4.535 11.902 15.186 7.367 23.791l-25.051 47.524c-3.063 5.809-9.079 9.399-15.575 9.399z" fill="#ffa87a"/><path d="m224.396 157.332-42.035 79.745c-4.775 9.059-15.992 12.533-25.041 7.763l-46.404-24.46c-9.049-4.77-12.522-15.986-7.747-25.046l42.035-79.745c5.936-11.262 18.771-16.517 30.569-13.306 1.854.506 3.682 1.22 5.451 2.152l32.017 16.877c1.769.932 3.391 2.037 4.856 3.281 9.317 7.919 12.235 21.477 6.299 32.739z" fill="#ffc0a4"/><path d="m224.396 157.332-42.038 79.75c-4.773 9.055-15.983 12.526-25.038 7.753l-23.205-12.232 63.113-119.733 16.014 8.441c13.027 6.867 18.021 22.994 11.154 36.021z" fill="#ffa87a"/><path d="m210.057 184.545-17.724 33.589c-4.775 9.059-25.96 31.477-35.009 26.708l-46.404-24.46c-9.049-4.77-12.522-15.987-7.747-25.046l27.691-52.534c5.088 2.682 10.786 3.051 15.873 1.476 5.103-1.58 9.595-5.105 12.277-10.193l16.762-31.8c1.854.506 3.682 1.22 5.451 2.152l4.828 2.545-11.855 22.491c-3.254 6.174-.889 13.812 5.285 17.066 6.173 3.254 13.811.889 17.066-5.285l11.856-22.491 4.839 2.551c1.768.932 3.391 2.037 4.856 3.281l-16.762 31.8c-5.37 10.188-1.46 22.785 8.717 28.15z" fill="#fff"/><g><ellipse cx="212.098" cy="84.662" fill="#ffc0a4" rx="31.888" ry="31.888" transform="matrix(.846 -.534 .534 .846 -12.45 126.269)"/><path d="m240.307 99.531c-8.213 15.58-27.498 21.552-43.078 13.34l29.739-56.418c15.579 8.212 21.551 27.498 13.339 43.078z" fill="#ffa87a"/></g><path d="m192.37 218.09-23.358 18.992c-4.773 9.055-2.636 12.526-11.691 7.753l-46.4-24.458c-9.055-4.773-12.526-15.983-7.753-25.038l10.011-18.992z" fill="#84f600"/><path d="m192.37 218.09-15.443 29.298c-1.773 3.363-5.937 4.653-9.3 2.88l-33.511-17.664 18.653-35.388z" fill="#00ca7f"/><path d="m242.954 100.926-4.416-2.328c-9.287-4.896-17.158-11.9-23.061-20.349-3.865-5.503-6.883-11.614-8.909-18.158l-.297.564c-4.77 9.049-15.97 12.517-25.03 7.741 4.489-8.517 12.017-14.407 20.549-17.049 8.533-2.642 18.055-2.032 26.572 2.457 17.045 8.986 23.571 30.089 14.592 47.122z" fill="#3c3b40"/><path d="m242.954 100.926-4.416-2.328c-9.287-4.896-17.158-11.9-23.061-20.349l12.885-24.444c17.045 8.985 23.571 30.088 14.592 47.121z" fill="#2b2b2b"/><path d="m184.408 318.938-15.158 31.155-4.366 8.983-4.079 8.395c-3.693 7.603-12.103 11.391-19.999 9.556-1.278-.297-2.535-.74-3.768-1.341-8.836-4.294-12.509-14.931-8.215-23.767l4.487-9.232 10.055-20.68-5.252 10.792 14.367-29.538c.046-.09.092-.18.138-.27 9.044-17.844 1.948-39.814-15.839-48.996l-10.827-5.588c-8.724-4.508-12.148-15.238-7.641-23.961 4.507-8.724 15.238-12.148 23.961-7.641l10.827 5.588c35.036 18.074 49.054 61.358 31.309 96.545z" fill="#ffc0a4"/><path d="m179.826 404.155c-.536 2.306-1.369 4.592-2.511 6.795-1.556 3.013-5.261 4.217-8.279 2.685l-13.73-7.131-33.876-17.84c-4.642-2.41-6.519-8.079-4.233-12.783l11.426-23.508 35.905 19.154c2.163 1.094 4.125 2.406 5.876 3.921 8.221 7.048 11.87 18.17 9.422 28.707z" fill="#3c3b40"/><path d="m35.564 335.445c-2.34.354-4.773.424-7.242.177-3.375-.333-5.862-3.331-5.553-6.702l1.554-15.393 4.051-35.656c.524-5.204 5.099-9.043 10.314-8.656l26.067 1.933-4.523 38.027c-.218 2.415-.712 4.722-1.473 6.909-3.512 10.244-12.5 17.743-23.195 19.361z" fill="#2b2b2b"/><g><path d="m132.129 252.486-26.915-14.359c-10.693-5.705-14.738-18.998-9.033-29.692l6.989-13.102 46.277 24.689z" fill="#84f600"/></g></g><path d="m469.184 162.658v235.123c-4.032 6.048-8.309 11.914-12.832 17.589-2.912 3.659-5.931 7.243-9.056 10.731-6.069 6.848-12.523 13.355-19.307 19.509-.853.779-1.717 1.547-2.581 2.304v-285.256z" fill="#c8c6cb"/><path d="m469.184 162.658v235.123c-4.032 6.048-8.309 11.914-12.832 17.589-2.912 3.659-5.931 7.243-9.056 10.731v-263.443z" fill="#99989b"/><path d="m456.352 415.371c-8.629 10.837-18.123 20.949-28.363 30.24-15.467 14.048-32.651 26.219-51.211 36.16-35.978 19.296-77.098 30.229-120.778 30.229s-84.8-10.933-120.779-30.229c-18.56-9.941-35.744-22.112-51.211-36.16-10.24-9.291-19.733-19.403-28.363-30.24z" fill="#c8c6cb"/><path d="m456.352 415.371c-8.629 10.837-18.123 20.949-28.363 30.24-15.467 14.048-32.651 26.219-51.211 36.16-35.978 19.296-77.098 30.229-120.778 30.229v-96.629z" fill="#99989b"/><path d="m84.011 445.611c15.467 14.048 32.651 26.219 51.211 36.16h241.557c18.56-9.941 35.744-22.112 51.211-36.16z" fill="#3c3b40"/><path d="m427.989 445.611c-15.467 14.048-32.651 26.219-51.211 36.16h-120.778v-36.16z" fill="#313133"/><path d="m496.779 168.853-131.872 48.139c-11.371 4.15-23.925-1.706-28.064-13.056-.907-2.474-1.333-5.013-1.333-7.499 0-8.938 5.493-17.323 14.368-20.565l128.448-46.88c3.648 6.368 7.019 12.907 10.123 19.605 3.06 6.603 5.844 13.355 8.33 20.256z" fill="#eee"/><path d="m496.779 168.853-131.872 48.139c-11.371 4.15-23.925-1.706-28.064-13.056l151.605-55.339c3.061 6.603 5.845 13.355 8.331 20.256z" fill="#dddddf"/></g></g></svg>