<svg id="Capa_1" enable-background="new 0 0 512 512" height="512" viewBox="0 0 512 512" width="512" xmlns="http://www.w3.org/2000/svg"><path d="m511.976 252.475c1.063 78.957-33.632 149.845-88.916 197.495l-1.945.722c-106.455 39.527-223.628 39.138-329.819-1.096l-4.926-1.866h-.01c-52.97-46.91-86.36-115.42-86.36-191.73 0-141.192 114.315-255.695 255.436-255.999 140.692-.304 254.647 111.795 256.54 252.474z" fill="#22d7ff"/><path d="m512 256c0 77.53-34.48 147.03-88.94 193.97l-1.953.725c-106.451 39.525-223.618 39.138-329.805-1.09l-4.922-1.865c-52.98-46.91-86.38-115.43-86.38-191.74 0-46.22 12.25-89.57 33.68-127 44.12 77.07 127.16 129 222.32 129s178.21-51.93 222.32-129c21.43 37.43 33.68 80.78 33.68 127z" fill="#00b3fe"/><path d="m483.5 226.64-60.44 223.33c-44.84 38.66-103.22 62.03-167.06 62.03-5.42 0-10.79-.17-16.12-.5h-.01l-50.06-13.55c-15.17-4.1-24.13-19.73-20.03-34.89l81.03-299.39c4.1-15.17 19.72-24.14 34.89-20.04l177.77 48.11c15.17 4.11 24.14 19.74 20.03 34.9z" fill="#ff9f00"/><path d="m461.14 309.27-38.08 140.7c-44.84 38.66-103.22 62.03-167.06 62.03-5.42 0-10.79-.17-16.12-.5h-.01l-50.06-13.55c-15.17-4.1-24.13-19.73-20.03-34.89l58.67-216.77c4.1-15.16 19.72-24.14 34.89-20.03l177.77 48.11c15.17 4.1 24.13 19.73 20.03 34.9z" fill="#ec781b"/><path d="m442.99 376.34-19.93 73.63c-44.84 38.66-103.22 62.03-167.06 62.03-5.42 0-10.8-.17-16.13-.5l-50.06-13.55c-15.17-4.1-24.13-19.73-20.03-34.89l40.51-149.7z" fill="#c55733"/><path d="m372.76 167.19-93.03 343.71c-7.81.73-15.73 1.1-23.73 1.1-5.42 0-10.79-.17-16.12-.5h-.01l-20.44-5.53 95.89-354.32z" fill="#4e689b"/><path d="m350.39 249.82-70.66 261.08c-7.81.73-15.73 1.1-23.73 1.1-5.42 0-10.79-.17-16.12-.5h-.01l-20.44-5.53 73.53-271.7z" fill="#374c81"/><g fill="#fff"><path d="m394.495 408.699-33.543 1.378 28.282 18.036c1.379.879 2.027 2.552 1.599 4.131l-2.524 9.326c-.685 2.531-3.693 3.59-5.813 2.046l-39.202-28.551c-1.253-.913-1.814-2.504-1.409-4.001l3.374-12.466c.406-1.5 1.697-2.593 3.243-2.745l48.216-4.758c2.605-.257 4.662 2.173 3.978 4.699l-2.746 10.145c-.425 1.576-1.824 2.693-3.455 2.76z"/><path d="m377.831 465.967-43.726-11.834c-1.994-.54-3.173-2.594-2.633-4.588l2.609-9.64c.54-1.994 2.594-3.173 4.588-2.633l43.726 11.834c1.994.54 3.173 2.594 2.633 4.588l-2.609 9.64c-.54 1.994-2.594 3.173-4.588 2.633z"/><path d="m375.86 473.23-43.72-11.83c-2-.54-4.05.64-4.59 2.63l-2.61 9.64c-.54 2 .64 4.05 2.64 4.59l9.61 2.6-1.91 7.05c-1.18 4.37-1.42 8.34-.76 11.82 4.74-1.52 9.42-3.18 14.03-4.98-.59-1.19-.68-2.63-.24-4.25l1.67-6.18 12.14 3.29-.44 1.62c5.39-2.44 10.68-5.07 15.86-7.87l.96-3.54c.54-1.99-.64-4.05-2.64-4.59z"/></g><path d="m324.81 344.35-45.08 166.55c-7.81.73-15.73 1.1-23.73 1.1-5.42 0-10.79-.17-16.12-.5h-.01l-20.44-5.53 47.95-177.16z" fill="#234177"/><path d="m324.63 502.7h-.01c-21.84 6.06-44.85 9.3-68.62 9.3-5.42 0-10.79-.17-16.12-.5h-.01c-58.73-3.65-112.1-27.1-153.51-63.77l-47.58-229.99c-3.18-15.39 6.71-30.45 22.1-33.63l180.35-37.31c15.39-3.18 30.44 6.72 33.62 22.1l62.84 303.73c2.5 12.09-3.08 23.99-13.06 30.07z" fill="#ffe400"/><path d="m324.63 502.7h-.01c-21.84 6.06-44.85 9.3-68.62 9.3-5.42 0-10.79-.17-16.12-.5h-.01c-58.73-3.65-112.1-27.1-153.51-63.77l-30.24-146.17c-3.18-15.38 6.71-30.45 22.1-33.63l180.35-37.31c15.39-3.18 30.44 6.72 33.62 22.1l45.5 219.91c2.5 12.09-3.08 23.99-13.06 30.07z" fill="#ffce00"/><path d="m324.62 502.7c-21.84 6.06-44.85 9.3-68.62 9.3-5.42 0-10.79-.17-16.12-.5h-.01c-58.73-3.65-112.1-27.1-153.51-63.77l-16.16-78.13 236.07-48.84 31.42 151.87c2.5 12.1-3.08 24-13.07 30.07z" fill="#ff9f00"/><path d="m220.3 509.53c-22.56-3.15-44.18-9.23-64.46-17.86l-64.91-313.78 58.27-12.05z" fill="#4e689b"/><path d="m220.3 509.53c-22.56-3.15-44.18-9.23-64.46-17.86l-47.57-229.96 58.27-12.05z" fill="#374c81"/><path d="m277.603 371.532-29.31 16.37 33.378 3.328c1.627.162 2.96 1.363 3.292 2.964l1.957 9.461c.531 2.567-1.675 4.87-4.263 4.45l-47.868-7.782c-1.53-.249-2.749-1.416-3.063-2.934l-2.616-12.647c-.315-1.522.344-3.079 1.655-3.914l40.878-26.009c2.209-1.405 5.14-.165 5.671 2.398l2.129 10.292c.33 1.598-.415 3.227-1.84 4.023z" fill="#fff"/><path d="m288.582 430.156-44.36 9.177c-2.023.418-4.002-.882-4.421-2.905l-2.023-9.78c-.418-2.023.882-4.002 2.905-4.421l44.36-9.177c2.023-.418 4.002.882 4.421 2.905l2.023 9.78c.419 2.023-.882 4.002-2.905 4.421z" fill="#fff"/><path d="m284.659 486.016c-12.534 2.593-21.361-3.654-24.137-17.073l-1.48-7.152-9.756 2.018c-2.023.418-4.002-.882-4.421-2.905l-2.023-9.78c-.418-2.023.882-4.002 2.905-4.421l44.36-9.177c2.023-.418 4.002.882 4.421 2.905l4.26 20.595c2.776 13.42-2.332 22.55-14.129 24.99zm-3.872-16.114c3.834-.793 5.603-3.389 4.841-7.076l-1.296-6.267-12.313 2.547 1.296 6.267c.763 3.687 3.491 5.353 7.472 4.529z" fill="#fff"/><path d="m220.3 509.53c-22.56-3.15-44.18-9.23-64.46-17.86l-27.73-134.05 58.27-12.05z" fill="#234177"/></svg>